<?xml version="1.0" encoding="utf-8"?>
<!-- Generator: Adobe Illustrator 19.1.0, SVG Export Plug-In . SVG Version: 6.00 Build 0)  -->
<svg xmlns="http://www.w3.org/2000/svg" xmlns:xlink="http://www.w3.org/1999/xlink" version="1.1" id="Layer_1" x="0px" y="0px" viewBox="0 0 64 64" enable-background="new 0 0 64 64" xml:space="preserve" width="512px" height="512px">
<path id="Clouds" d="M55.3457108,23.3169003c-0.936512,0-1.8457108,0.1455002-2.7149124,0.4335995  C51.0488014,18.0473995,45.8408012,14.0239,39.8143997,14.0239c-5.9519005,0-11.1826,4.0154009-12.7889996,9.6680002  C26.1081009,23.4904003,25.1601009,23.3736,24.1844997,23.3736c-6.0252991,0-11.232399,4.0223999-12.8143988,9.7265015  c-0.8692007-0.2890015-1.7783003-0.4346008-2.7149-0.4346008c-4.7723999,0-8.6552,3.8819008-8.6552,8.6543007  c0,4.7734985,3.8828001,8.6562996,8.6552,8.6562996h28.9755974c3.9942017,0,7.2432022-3.25,7.2432022-7.2441025  c0-0.7332993-0.1128006-1.4395981-0.3162003-2.1064987h10.7879105C60.1180992,40.6254997,64,36.7436981,64,31.9712009  S60.1180992,23.3169003,55.3457108,23.3169003z M37.6307983,47.9761009H8.655201c-3.6699004,0-6.6552-2.9863014-6.6552-6.6562996  c0-3.6688995,2.9852998-6.6543007,6.6552-6.6543007c1.0478992,0,2.0488997,0.2364006,2.9765997,0.7031975  c0.2812996,0.1416016,0.6122999,0.1416016,0.8955002,0.0009003c0.2821999-0.1405983,0.4814997-0.4061966,0.5380993-0.7167969  C14.0371008,29.2758999,18.7138004,25.3736,24.1844997,25.3736c6.1924,0,11.262701,5.0361004,11.3007984,11.2265015  c0.0020027,0.2958984,0.1348,0.5761986,0.3623009,0.764698c0.2285004,0.1884003,0.5303001,0.2656021,0.8194008,0.2129021  c0.3203011-0.0586014,0.6445007-0.0889015,0.9637985-0.0889015c2.8907013,0,5.2432022,2.3525009,5.2432022,5.2431984  C42.8740005,45.6236,40.5214996,47.9761009,37.6307983,47.9761009z M55.3457108,38.6254997H43.5927124  c-1.3419991-1.9387016-3.6071129-3.1935997-6.159111-3.1338005c-0.4561005-5.1349983-3.8588905-9.4412994-8.4910011-11.2283001  c1.3549995-4.816,5.8054008-8.2395,10.8717995-8.2395c5.4716988,0,10.1493988,3.902401,11.1211014,9.2793007  c0.0566978,0.3106003,0.2558975,0.5762005,0.5370979,0.7168007c0.2812996,0.1406994,0.6142998,0.1415997,0.8955002-0.0009003  c0.9286995-0.4659004,1.9306984-0.7021999,2.9776115-0.7021999C59.0145988,25.3169003,62,28.3022995,62,31.9712009  C62,35.6402016,59.0145988,38.6254997,55.3457108,38.6254997z" fill="#ffffff"/>
<g>
</g>
<g>
</g>
<g>
</g>
<g>
</g>
<g>
</g>
<g>
</g>
<g>
</g>
<g>
</g>
<g>
</g>
<g>
</g>
<g>
</g>
<g>
</g>
<g>
</g>
<g>
</g>
<g>
</g>
</svg>
