<?xml version="1.0" encoding="utf-8"?>
<!-- Generator: Adobe Illustrator 19.1.0, SVG Export Plug-In . SVG Version: 6.00 Build 0)  -->
<svg xmlns="http://www.w3.org/2000/svg" xmlns:xlink="http://www.w3.org/1999/xlink" version="1.1" id="Layer_1" x="0px" y="0px" viewBox="0 0 64 64" enable-background="new 0 0 64 64" xml:space="preserve" width="512px" height="512px">
<g id="Precipitation">
	<circle cx="19.7693539" cy="44.8182411" r="1.4997433" fill="#FFFFFF"/>
	<circle cx="26.7688999" cy="52.8177414" r="1.4995947" fill="#FFFFFF"/>
	<circle cx="19.7693501" cy="61.8182411" r="1.4997163" fill="#FFFFFF"/>
	<circle cx="32.7687988" cy="44.8179893" r="1.499669" fill="#FFFFFF"/>
	<circle cx="38.7683487" cy="52.8184891" r="1.499668" fill="#FFFFFF"/>
	<circle cx="32.7689018" cy="61.8179398" r="1.4996912" fill="#FFFFFF"/>
	<circle cx="45.7682495" cy="44.8182411" r="1.4997163" fill="#FFFFFF"/>
	<circle cx="45.7682991" cy="61.8182411" r="1.4997293" fill="#FFFFFF"/>
	<path d="M53.959198,18.1912899c-0.2333984,0-0.464798,0.0077991-0.6962967,0.0233994   C52.6174011,8.44909,44.4367981,0.68149,34.5265999,0.68149c-8.6688995,0-16.1376991,5.8965001-18.2129002,14.1924   c-1.3466997-0.5078001-2.7645912-0.7636995-4.2313995-0.7636995c-6.6518993,0-12.0639992,5.4112005-12.0639992,12.062499   c0,6.6513996,5.4120998,12.0635014,12.0639992,12.0635014H53.959198c5.5264015,0,10.0225029-4.4961014,10.0225029-10.0223999   C63.9817009,22.6873894,59.4855995,18.1912899,53.959198,18.1912899z M53.959198,36.2361908H12.0823002   c-5.5492997,0-10.0639992-4.5146008-10.0639992-10.0635014c0-5.5487995,4.5146999-10.0625,10.0639992-10.0625   c1.5834999,0,3.0981007,0.3575001,4.5018997,1.0625c0.2832012,0.142601,0.6153011,0.1415997,0.8964996,0.0010014   c0.2813015-0.1406002,0.4805012-0.4062004,0.5371017-0.7168007c1.4424-7.9814005,8.3857994-13.7754002,16.5087986-13.7754002   c9.1913986,0,16.7178001,7.4776001,16.777401,16.6679993c0.0018997,0.2959003,0.134697,0.5762005,0.3641968,0.7646008   c0.2276001,0.1895008,0.5322037,0.2637005,0.8194008,0.2119999c0.4765091-0.0898991,0.9715996-0.1348,1.4715996-0.1348   c4.423912,0,8.0225029,3.5986004,8.0225029,8.022501C61.9817009,32.6375885,58.38311,36.2361908,53.959198,36.2361908z" fill="#FFFFFF"/>
</g>
<g>
</g>
<g>
</g>
<g>
</g>
<g>
</g>
<g>
</g>
<g>
</g>
<g>
</g>
<g>
</g>
<g>
</g>
<g>
</g>
<g>
</g>
<g>
</g>
<g>
</g>
<g>
</g>
<g>
</g>
</svg>
