<?xml version="1.0" encoding="utf-8"?>
<!-- Generator: Adobe Illustrator 19.1.0, SVG Export Plug-In . SVG Version: 6.00 Build 0)  -->
<svg xmlns="http://www.w3.org/2000/svg" xmlns:xlink="http://www.w3.org/1999/xlink" version="1.1" id="Layer_1" x="0px" y="0px" viewBox="0 0 64 64" enable-background="new 0 0 64 64" xml:space="preserve" width="512px" height="512px">
<g id="Sun-cloud">
	<path d="M52.7519989,34.4863014c0-5.3359013-4.341301-9.677702-9.6772995-9.677702   c-3.7468987,0-7.1274986,2.1886005-8.719101,5.4824009C31.9780006,26.9871006,28.1086998,24.8223,23.75,24.8223   c-5.9144993,0-11.0262995,3.9442997-12.5868912,9.5390015c-0.8491087-0.280201-1.7368078-0.4209023-2.6523085-0.4209023   c-4.6928997,0-8.5107994,3.8184013-8.5107994,8.5107994s3.8178999,8.5107002,8.5107994,8.5107002h28.4321022   c3.8352089,0,6.9638977-3.0472984,7.1117973-6.8474007C48.9321098,43.6216011,52.7519989,39.4915009,52.7519989,34.4863014z    M36.9429016,48.9618988H8.5108004c-3.5898995,0-6.5107994-2.9208984-6.5107994-6.5107002   c0-3.5898972,2.9209001-6.5107994,6.5107994-6.5107994c1.026309,0,2.0063086,0.2315025,2.9130001,0.6875   c0.2807999,0.1416016,0.6138,0.142601,0.8956003,0.0009995c0.2821999-0.1405983,0.4813995-0.4062004,0.5375996-0.7167969   C13.8096008,30.6455002,18.3906002,26.8223,23.75,26.8223c6.0645008,0,11.0298004,4.9335995,11.0689011,10.9980011   c0.0018997,0.2958984,0.134697,0.5751991,0.3628006,0.7636986c0.2279968,0.1884995,0.5267982,0.2645988,0.8187981,0.2129021   c0.308609-0.0567017,0.6254997-0.0860023,0.9424019-0.0860023c2.8266983,0,5.1259995,2.2989006,5.1259995,5.125   C42.0689011,46.6621017,39.7695999,48.9618988,36.9429016,48.9618988z M43.8522987,42.1245995   c-0.7695007-3.1034012-3.5709991-5.4137001-6.9093971-5.4137001c-0.0591011,0-0.1177025,0.0009995-0.1767921,0.0019989   c-0.13451-1.491497-0.5337105-2.9055977-1.1303101-4.2121964c0.0149002-0.0359001,0.0383987-0.0659027,0.0493088-0.1042023   c0.9296913-3.2901001,3.9686928-5.5879002,7.3895912-5.5879002c4.2334099,0,7.6772995,3.4442997,7.6772995,7.677702   C50.7519989,38.4572983,47.7219009,41.7336006,43.8522987,42.1245995z" fill="#ffffff"/>
	<path d="M43.0746994,22.3925991c0.5522995,0,1-0.4473,1-1v-7.3544989c0-0.5527-0.4477005-1-1-1c-0.5522003,0-1,0.4473-1,1   v7.3544989C42.0746994,21.9452991,42.5224991,22.3925991,43.0746994,22.3925991z" fill="#ffffff"/>
	<path d="M63,33.0839996h-7.3549995c-0.5522003,0-1,0.4473-1,1s0.4477997,1,1,1H63c0.5522995,0,1-0.4473,1-1   S63.5522995,33.0839996,63,33.0839996z" fill="#ffffff"/>
	<path d="M51.7519989,26.8085995c0.2558022,0,0.5116997-0.0977001,0.7070007-0.2929993l5.2001991-5.200201   c0.3906021-0.3905983,0.3906021-1.0233994,0-1.4139996c-0.3905983-0.3906994-1.0233994-0.3906994-1.4140892,0l-5.2002106,5.200201   c-0.3905983,0.3906002-0.3905983,1.0233994,0,1.4139996C51.2402992,26.7108994,51.496109,26.8085995,51.7519989,26.8085995z" fill="#ffffff"/>
	<path d="M52.4589996,42.8993988c-0.3905983-0.3905983-1.0233994-0.3905983-1.4141006,0   c-0.3905983,0.3906021-0.3905983,1.0235023,0,1.4141006l5.2002106,5.2001991   c0.1952896,0.1953011,0.4511909,0.2929001,0.7070885,0.2929001c0.2558022,0,0.5116997-0.097599,0.7070007-0.2929001   c0.3906021-0.3906975,0.3906021-1.0234985,0-1.4140968L52.4589996,42.8993988z" fill="#ffffff"/>
	<path d="M33.6899986,26.5156002c0.1953011,0.1952991,0.4511108,0.2929993,0.7070007,0.2929993   c0.2559013,0,0.5116997-0.0977001,0.7070007-0.2929993c0.3905983-0.3906002,0.3905983-1.0233994,0-1.4139996l-5.2001991-5.200201   c-0.3906002-0.3906994-1.0234013-0.3906994-1.4140015,0c-0.3906898,0.3906002-0.3906898,1.0234013,0,1.4139996   L33.6899986,26.5156002z" fill="#ffffff"/>
</g>
<g>
</g>
<g>
</g>
<g>
</g>
<g>
</g>
<g>
</g>
<g>
</g>
<g>
</g>
<g>
</g>
<g>
</g>
<g>
</g>
<g>
</g>
<g>
</g>
<g>
</g>
<g>
</g>
<g>
</g>
</svg>
