<?xml version="1.0" encoding="utf-8"?>
<!-- Generator: Adobe Illustrator 19.1.0, SVG Export Plug-In . SVG Version: 6.00 Build 0)  -->
<svg xmlns="http://www.w3.org/2000/svg" xmlns:xlink="http://www.w3.org/1999/xlink" version="1.1" id="Layer_1" x="0px" y="0px" viewBox="0 0 64 64" enable-background="new 0 0 64 64" xml:space="preserve" width="512px" height="512px">
<g id="Rain">
	<path d="M53.971714,18.4018993c-0.2325134,0-0.4649162,0.0078011-0.6963158,0.0234013   C52.6317978,8.6527996,44.4458008,0.8813,34.5278015,0.8813c-8.6748009,0-16.1479015,5.9014001-18.2240887,14.2021999   c-1.3472128-0.5067997-2.7661123-0.7636995-4.2349119-0.7636995c-6.6547003,0-12.0688,5.4140997-12.0688,12.0684004   c0,6.6552982,5.4140997,12.0692997,12.0688,12.0692997H53.971714C59.5014992,38.4575005,64,33.9584999,64,28.4291992   S59.5014992,18.4018993,53.971714,18.4018993z M53.971714,36.4575005H12.0688009   c-5.5517001,0-10.0688-4.5165997-10.0688-10.0692997c0-5.5518017,4.5171003-10.0684013,10.0688-10.0684013   c1.5859995,0,3.1015997,0.3574009,4.5053988,1.0635014c0.2827015,0.1425991,0.6142998,0.1425991,0.8959999,0.0009995   c0.2821999-0.1406002,0.4810009-0.4062996,0.5370998-0.7168007C19.451601,8.6792002,26.3994007,2.8813,34.5278015,2.8813   c9.1987991,0,16.7294998,7.4814997,16.7880974,16.6788006c0.0019989,0.2959003,0.1348114,0.5751991,0.3633003,0.7635994   c0.2280006,0.1895008,0.528801,0.2646999,0.8188019,0.2129002c0.4819984-0.0897999,0.9776001-0.1347008,1.4737129-0.1347008   c4.4266853,0,8.028286,3.6005001,8.028286,8.0272999S58.3983994,36.4575005,53.971714,36.4575005z" fill="#ffffff"/>
	<path d="M20.3535004,42.8246994c-0.5175991-0.1903992-1.0923004,0.0811005-1.279789,0.6016006l-2.2778111,6.3193016   c-0.1870003,0.5194969,0.0820007,1.0928001,0.6019993,1.2792969c0.1119003,0.0410004,0.2261009,0.0596008,0.3389015,0.0596008   c0.4096985,0,0.793911-0.2529984,0.9409103-0.6611977l2.2778893-6.3193016   C21.142601,43.5844994,20.8735008,43.0112,20.3535004,42.8246994z" fill="#ffffff"/>
	<path d="M24.028801,54.8588982c-0.517601-0.1894989-1.0923004,0.0810013-1.2798004,0.6015015l-2.2777996,6.3194008   c-0.1870003,0.5195007,0.0819988,1.0928001,0.6019993,1.2793007c0.1117992,0.0410004,0.2261009,0.059597,0.3388996,0.059597   c0.4097004,0,0.7938995-0.2529984,0.9409008-0.6611977l2.2777996-6.3193016   C24.8178997,55.6186981,24.5487995,55.0453987,24.028801,54.8588982z" fill="#ffffff"/>
	<path d="M33.2373009,42.8246994c-0.518589-0.1903992-1.0923004,0.0811005-1.2798004,0.6016006l-2.2777882,6.3193016   c-0.1870003,0.5194969,0.0820007,1.0928001,0.6019993,1.2792969c0.1117878,0.0410004,0.2260876,0.0596008,0.3388882,0.0596008   c0.4097004,0,0.7938995-0.2529984,0.9409008-0.6611977l2.2777977-6.3193016   C34.0264015,43.5844994,33.7573013,43.0112,33.2373009,42.8246994z" fill="#ffffff"/>
	<path d="M36.9126015,54.8588982c-0.5186005-0.1894989-1.0923004,0.0810013-1.2798004,0.6015015l-2.2778015,6.3194008   c-0.1870003,0.5195007,0.0820007,1.0928001,0.6020012,1.2793007c0.1117973,0.0410004,0.2261009,0.059597,0.3388977,0.059597   c0.4097023,0,0.7939034-0.2529984,0.9409027-0.6611977l2.2777977-6.3193016   C37.7015991,55.6186981,37.4325981,55.0453987,36.9126015,54.8588982z" fill="#ffffff"/>
	<path d="M46.1216011,42.8246994c-0.517601-0.1903992-1.0923004,0.0811005-1.2798004,0.6016006l-2.2778015,6.3193016   c-0.1870995,0.5194969,0.0820007,1.0928001,0.6020012,1.2792969c0.1118011,0.0410004,0.2261009,0.0596008,0.3388977,0.0596008   c0.4096031,0,0.7939034-0.2529984,0.9409027-0.6611977l2.2777977-6.3193016   C46.9105988,43.5844994,46.6415977,43.0112,46.1216011,42.8246994z" fill="#ffffff"/>
</g>
<g>
</g>
<g>
</g>
<g>
</g>
<g>
</g>
<g>
</g>
<g>
</g>
<g>
</g>
<g>
</g>
<g>
</g>
<g>
</g>
<g>
</g>
<g>
</g>
<g>
</g>
<g>
</g>
<g>
</g>
</svg>
