<?xml version="1.0" encoding="utf-8"?>
<!-- Generator: Adobe Illustrator 19.1.0, SVG Export Plug-In . SVG Version: 6.00 Build 0)  -->
<svg xmlns="http://www.w3.org/2000/svg" xmlns:xlink="http://www.w3.org/1999/xlink" version="1.1" id="Layer_1" x="0px" y="0px" viewBox="0 0 64 64" enable-background="new 0 0 64 64" xml:space="preserve" width="512px" height="512px">
<path d="M63,31.0009499h-6.9681015l4.6590004-4.8642006c0.3818016-0.3984985,0.3680992-1.0312996-0.0303001-1.4140987  c-0.3983994-0.3808002-1.0317001-0.3672009-1.4141006,0.0312996l-5.9835968,6.2469997h-18.849102l13.4929008-13.4930992  l8.4634094,0.3495998c0.0140915,0.0009995,0.0282898,0.0009995,0.0419998,0.0009995  c0.5336914,0,0.97649-0.4209003,0.9984894-0.9589996c0.0229988-0.5517998-0.4057999-1.0176001-0.957489-1.0401001  l-6.6245117-0.2734003l4.7988014-4.7987995c0.3905983-0.3907003,0.3905983-1.0235004,0-1.4141006s-1.0233994-0.3906002-1.4141006,0  l-4.9261894,4.9263l-0.1450005-6.7319999c-0.0127106-0.5527-0.4751091-0.9892001-1.0215111-0.9784999  c-0.5522995,0.0117002-0.9902992,0.4698-0.9784889,1.0215001l0.1864891,8.647501L33,29.5866508V10.5056496L39.2328987,4.76755  c0.4062119-0.3740001,0.4326019-1.0058,0.0586014-1.4131c-0.3736-0.4052-1.0073929-0.4345-1.4131012-0.0576L33,7.7873502V1.00095  c0-0.5527-0.4477997-1-1-1c-0.5522995,0-1,0.4473-1,1v6.9665999L26.137701,3.31055  c-0.3985004-0.3827999-1.0318012-0.3690999-1.4141006,0.0303001c-0.3817997,0.3983998-0.3682003,1.0311997,0.0303001,1.4131  L31,10.7370501v18.8482018L17.5086002,16.09375l0.3483009-8.4638996c0.0228996-0.5517001-0.4063015-1.0174999-0.9580002-1.04  C16.3520012,6.5439501,15.8813,6.99615,15.8587999,7.5478501l-0.2724991,6.6234994l-4.7983007-4.7982998  c-0.3905993-0.3906002-1.0233994-0.3906002-1.4139996,0s-0.3906002,1.0234003,0,1.4141006l4.9265995,4.9265995l-6.7336993,0.1447001  c-0.5523,0.0116997-0.9903002,0.4696999-0.9786,1.0214005c0.0118084,0.5450001,0.4576001,0.9785995,0.9995999,0.9785995  c0.0072999,0,0.0145998,0,0.0219002,0l8.6493092-0.1861l13.3284912,13.3285999H10.6125002l-5.9835997-6.2469997  c-0.3818998-0.3985004-1.0146997-0.4120998-1.4140997-0.0312996c-0.3984001,0.3827991-0.4121001,1.0156002-0.0303001,1.4140987  l4.6589999,4.8642006H1.0000008c-0.5523,0-1,0.4473-1,1c0,0.5527992,0.4477,1,1,1h6.6617994l-4.4908996,4.8759995  c-0.3741,0.4062996-0.3477001,1.0391006,0.0585999,1.4131012c0.1917999,0.1777,0.4345,0.2645988,0.6766999,0.2645988  c0.2700002,0,0.5390999-0.1083984,0.7363002-0.3222008l5.7383995-6.2314987H29.585701L16.1702995,46.4165497l-8.6488991-0.1870995  c-0.5439-0.0312004-1.0091996,0.4258003-1.0214,0.9785995c-0.0117998,0.5517006,0.4262004,1.0097008,0.9785004,1.0214005  l6.7333999,0.1455994l-4.8379002,4.8377991c-0.3906002,0.3907013-0.3906002,1.0235023,0,1.4141006  c0.1953001,0.1953011,0.4512005,0.2929993,0.7069998,0.2929993c0.2559004,0,0.5117006-0.0976982,0.7069998-0.2929993  l4.7101088-4.7101974l0.2737913,6.6251984c0.0220003,0.5381012,0.464901,0.9589996,0.9986,0.9589996  c0.0136089,0,0.0277996,0,0.0419998-0.0009003c0.5517006-0.0224991,0.9804001-0.4883003,0.9575005-1.0401001l-0.3495998-8.4652977  L31,34.4148483v18.974102l-6.2460995,5.9831009c-0.3985004,0.381897-0.4120998,1.014698-0.0303001,1.4130974  c0.3822994,0.3994026,1.0156002,0.4141006,1.4141006,0.0303001L31,56.1584511v6.8405991c0,0.5527,0.4477005,1,1,1  c0.5522003,0,1-0.4473,1-1v-6.6604004l4.8783989,4.4905014c0.1919022,0.1777,0.4350014,0.2645988,0.6767082,0.2645988  c0.270092,0,0.539093-0.1083984,0.736393-0.3223c0.3740005-0.4071999,0.3476105-1.0390015-0.0586014-1.4129982L33,53.6203499  V34.4133492l13.4169998,13.417202l-0.1865997,8.6488991c-0.0116997,0.5517998,0.4263,1.0098,0.9785004,1.0214996  c0.0074005,0,0.014698,0,0.0219994,0c0.5419998,0,0.9873009-0.4336014,0.9995003-0.9785004l0.1450996-6.7333984l4.8377991,4.8378983  c0.1954002,0.1953011,0.4512024,0.2929993,0.7070999,0.2929993c0.2558022,0,0.5117111-0.0976982,0.7070007-0.2929993  c0.3905983-0.3905983,0.3905983-1.0233994,0-1.4141006l-4.7108994-4.7108994l6.625-0.2733994  c0.5517006-0.0224991,0.9804001-0.4883003,0.9575005-1.0401001c-0.0225029-0.5517006-0.4706993-1.0038986-1.0405006-0.9580002  l-8.4637985,0.3496017L34.415699,33.0009499h19.0788002l5.7383995,6.2314987  c0.1972084,0.2138023,0.466301,0.3222008,0.7363014,0.3222008c0.2416992,0,0.4849091-0.0877991,0.6767998-0.2645988  c0.4062004-0.3740005,0.4325981-1.0068016,0.0585976-1.4131012l-4.4909973-4.8759995H63c0.5522003,0,1-0.4472008,1-1  C64,31.4482498,63.5522003,31.0009499,63,31.0009499z" fill="#ffffff"/>
<g>
</g>
<g>
</g>
<g>
</g>
<g>
</g>
<g>
</g>
<g>
</g>
<g>
</g>
<g>
</g>
<g>
</g>
<g>
</g>
<g>
</g>
<g>
</g>
<g>
</g>
<g>
</g>
<g>
</g>
</svg>
