<?xml version="1.0" encoding="utf-8"?>
<!-- Generator: Adobe Illustrator 19.1.0, SVG Export Plug-In . SVG Version: 6.00 Build 0)  -->
<svg xmlns="http://www.w3.org/2000/svg" xmlns:xlink="http://www.w3.org/1999/xlink" version="1.1" id="Layer_1" x="0px" y="0px" viewBox="0 0 64 64" enable-background="new 0 0 64 64" xml:space="preserve" width="512px" height="512px">
<g id="Snowflake">
	<path d="M51.5825005,15.6152c-0.1734009,0-0.3466988,0.0049-0.5200005,0.0145998C50.4310989,6.914,43.1122971,0,34.252903,0   c-7.7407017,0-14.4150009,5.2382002-16.3184013,12.6230001C16.7558022,12.1942997,15.5171013,11.9775,14.2363014,11.9775   c-5.9911995,0-10.8652,4.8739996-10.8652,10.8651991s4.8740005,10.8653011,10.8652,10.8653011h37.346199   c4.9883003,0,9.0463982-4.0585995,9.0463982-9.0468998S56.5708008,15.6152,51.5825005,15.6152z M51.5825005,31.7080002h-37.346199   c-4.8881998,0-8.8652-3.9766006-8.8652-8.8653011c0-4.8885994,3.9770002-8.8651991,8.8652-8.8651991   c1.3959999,0,2.7304993,0.3143997,3.9668007,0.9355001c0.2821999,0.1435995,0.6141987,0.1426001,0.8955002,0.0009995   c0.2821999-0.1405993,0.480999-0.4061995,0.5370998-0.7167997C20.9135017,7.1297998,27.0610008,2,34.252903,2   c8.1376953,0,14.8012962,6.6201,14.8534966,14.7577991c0.0019989,0.2959003,0.1348,0.575201,0.3633003,0.7636013   c0.2280006,0.1884995,0.525898,0.2656994,0.8192978,0.2129002c0.4253006-0.0791016,0.8604012-0.1191006,1.2935028-0.1191006   c3.8851967,0,7.0463982,3.1611004,7.0463982,7.0459003C58.6288986,28.5468006,55.4676971,31.7080002,51.5825005,31.7080002z" fill="#FFFFFF"/>
	<path d="M35.9843025,45.9589005c-0.1777-0.3143997-0.5107002-0.5087013-0.8711014-0.5087013c-0.0033989,0-0.0067978,0-0.0097008,0   L31.836401,45.482399l1.2436008-9.044899c0.0634995-0.4599991-0.1996994-0.9043007-0.634201-1.0704002   c-0.4330978-0.1640015-0.9257984-0.0087013-1.1861,0.3759995l-9.4935989,14.0987015   c-0.2080002,0.3094978-0.2271004,0.7080002-0.0493011,1.0360985c0.1782017,0.3271027,0.4970016,0.5283012,0.8960018,0.5223999   l3.4584999-0.0584984L24.2822018,62.232399c-0.0771999,0.4717026,0.1889992,0.9316025,0.6362,1.0986023   c0.1152992,0.0429993,0.2334003,0.0634995,0.3500996,0.0634995c0.3388996,0,0.6651001-0.1729012,0.8516006-0.4746017   l9.8442001-15.9444008C36.1557007,46.6660004,36.1629982,46.2762985,35.9843025,45.9589005z M27.0756016,57.5643997   l1.1636009-7.0810013c0.0478992-0.2929993-0.0361004-0.5917969-0.2300014-0.8154984   c-0.1903992-0.2206993-0.4662991-0.3466988-0.7567997-0.3466988c-0.0053997,0-0.0112,0-0.0170994,0l-2.7388,0.0468979   l6.0151997-8.9325981l-0.8145008,5.9228973c-0.0394993,0.2871017,0.0484009,0.5781021,0.2403011,0.7968025   c0.1922989,0.2178001,0.4916992,0.3642998,0.7602005,0.3388977l2.6117992-0.0263977L27.0756016,57.5643997z" fill="#FFFFFF"/>
	<path d="M15.8999014,47.6240005l2.0297003-5.6319008c0.1870995-0.5195007-0.0825005-1.092701-0.6019993-1.2793007   c-0.5181007-0.1903992-1.0923004,0.0811005-1.2798004,0.6016006l-2.0298004,5.6318016   c-0.1870003,0.5195999,0.0825005,1.0928001,0.6021004,1.2792969c0.1117992,0.0411034,0.2261,0.0596008,0.3387995,0.0596008   C15.3686018,48.285099,15.752902,48.0321999,15.8999014,47.6240005z" fill="#FFFFFF"/>
	<path d="M44.7714005,40.7127991c-0.5180016-0.1903992-1.0922012,0.0811005-1.2797012,0.6016006l-2.0293007,5.6318016   c-0.1870003,0.5195999,0.0825005,1.0928001,0.6020012,1.2792969c0.1117973,0.0411034,0.2261009,0.0596008,0.3388977,0.0596008   c0.4096031,0,0.7938995-0.2528992,0.9409027-0.6610985l2.0292969-5.6319008   C45.5604973,41.472599,45.2910004,40.8993988,44.7714005,40.7127991z" fill="#FFFFFF"/>
	<path d="M18.1425018,55.6385994c-0.5184994-0.1913986-1.0921993,0.0811005-1.2796993,0.6016006l-2.0303011,5.6328011   c-0.1870003,0.5195007,0.0819998,1.0928001,0.6020002,1.2793007c0.1118002,0.0409966,0.2261,0.059597,0.3388996,0.059597   c0.4097004,0,0.7938995-0.2529984,0.9409008-0.6611977l2.0303001-5.6328011   C18.9316025,56.3983994,18.6626015,55.8251991,18.1425018,55.6385994z" fill="#FFFFFF"/>
	<path d="M38.7597008,56.4277c-0.5180016-0.1903992-1.0923004,0.0810013-1.2798004,0.6016006l-2.0296974,5.6317978   c-0.1871033,0.5195007,0.0825005,1.0928001,0.6019974,1.2793007C36.1639977,63.9813995,36.2782974,64,36.391098,64   c0.4095993,0,0.7938995-0.2529984,0.9409027-0.6612015l2.0298004-5.6317978   C39.5488014,57.1875,39.2793007,56.6142006,38.7597008,56.4277z" fill="#FFFFFF"/>
</g>
<g>
</g>
<g>
</g>
<g>
</g>
<g>
</g>
<g>
</g>
<g>
</g>
<g>
</g>
<g>
</g>
<g>
</g>
<g>
</g>
<g>
</g>
<g>
</g>
<g>
</g>
<g>
</g>
<g>
</g>
</svg>
