<?xml version="1.0" encoding="utf-8"?>
<!-- Generator: Adobe Illustrator 19.1.0, SVG Export Plug-In . SVG Version: 6.00 Build 0)  -->
<svg xmlns="http://www.w3.org/2000/svg" xmlns:xlink="http://www.w3.org/1999/xlink" version="1.1" id="Layer_1" x="0px" y="0px" viewBox="0 0 64 64" enable-background="new 0 0 64 64" xml:space="preserve" width="512px" height="512px">
<g id="Thermometer">
	<path fill-rule="evenodd" clip-rule="evenodd" d="M36.9106903,47.8143997V5.4657998C36.9106903,2.4521,34.7074928,0,32.0004921,0   c-2.7080002,0-4.9110851,2.4521-4.9110851,5.4657998v42.3485985c-2.4365139,1.6338005-3.926815,4.3964996-3.926815,7.3466988   C23.1625919,60.035099,27.1274929,64,32.0004921,64c4.8731003,0,8.8369141-3.964901,8.8369141-8.8389015   C40.8374062,52.2118988,39.3471909,49.4482002,36.9106903,47.8143997z M32.0004921,62   c-3.7705002,0-6.8379002-3.0684013-6.8379002-6.8389015c0-2.434597,1.3134995-4.7050972,3.426815-5.9258003   c0.3095856-0.1786995,0.5-0.5087967,0.5-0.8661995V5.4657998C29.089407,3.5546,30.3949928,2,32.0004921,2   c1.6044998,0,2.9101982,1.5546,2.9101982,3.4657998v42.9032974c0,0.3574028,0.190403,0.6875,0.5,0.8661995   c2.1133003,1.2207031,3.4267159,3.4922028,3.4267159,5.9258003C38.8374062,58.9315987,35.7699928,62,32.0004921,62z" fill="#FFFFFF"/>
	<path fill-rule="evenodd" clip-rule="evenodd" d="M33.1391907,51.107399V20.3237h-2.5868988v30.8778992   c-1.4496994,0.5769005-2.4785004,1.9866028-2.4785004,3.6408997c0,2.1648026,1.7580013,3.9230003,3.9239998,3.9230003   c2.1648026,0,3.9229012-1.7581978,3.9229012-3.9230003C35.9206924,53.0764999,34.7441902,51.5992012,33.1391907,51.107399z" fill="#FFFFFF"/>
</g>
<g>
</g>
<g>
</g>
<g>
</g>
<g>
</g>
<g>
</g>
<g>
</g>
<g>
</g>
<g>
</g>
<g>
</g>
<g>
</g>
<g>
</g>
<g>
</g>
<g>
</g>
<g>
</g>
<g>
</g>
</svg>
