<svg id="BACKGROUND_2" data-name="BACKGROUND 2" xmlns="http://www.w3.org/2000/svg" viewBox="0 0 750 500">
  <defs>
    <clipPath id="clip-path">
      <rect width="750" height="500" fill="none"/>
    </clipPath>
  </defs>
  <g clip-path="url(#clip-path)">
    <circle cx="95.14" cy="9" r="53.57" fill="#4452c8"/>
    <circle cx="359.69" cy="241.64" r="53.57" fill="#4452c8"/>
    <circle cx="738" cy="188.07" r="53.57" fill="#4452c8"/>
    <rect x="570.44" y="-43.59" width="105.19" height="105.19" fill="#4452c8"/>
    <rect x="314.19" y="456.41" width="105.19" height="105.19" fill="#4452c8"/>
    <rect x="-64.59" y="109.77" width="105.19" height="105.19" fill="#4452c8"/>
    <polygon points="559.43 245.06 495.82 355.23 623.03 355.23 559.43 245.06" fill="#4452c8"/>
    <polygon points="363 -63.44 299.39 46.73 426.61 46.73 363 -63.44" fill="#4452c8"/>
    <polygon points="166.57 240.13 102.97 350.3 230.18 350.3 166.57 240.13" fill="#4452c8"/>
    <polygon points="694.46 436.56 630.86 546.73 758.07 546.73 694.46 436.56" fill="#4452c8"/>
    <circle cx="95.14" cy="509" r="53.57" fill="#4452c8"/>
    <g fill="none" stroke="#1d262d" stroke-miterlimit="10" stroke-width=".25">
      <rect y="-88.79" width="750" height="750"/>
      <line y1="482.64" x2="750" y2="482.64"/>
      <line y1="446.93" x2="750" y2="446.93"/>
      <line y1="411.21" x2="750" y2="411.21"/>
      <line y1="375.5" x2="750" y2="375.5"/>
      <line y1="339.78" x2="750" y2="339.78"/>
      <line y1="304.07" x2="750" y2="304.07"/>
      <line y1="268.36" x2="750" y2="268.36"/>
      <line y1="232.64" x2="750" y2="232.64"/>
      <line y1="196.93" x2="750" y2="196.93"/>
      <line y1="161.21" x2="750" y2="161.21"/>
      <line y1="125.5" x2="750" y2="125.5"/>
      <line y1="89.78" x2="750" y2="89.78"/>
      <line y1="54.07" x2="750" y2="54.07"/>
      <line y1="18.36" x2="750" y2="18.36"/>
      <line x1="714.29" y1="-88.79" x2="714.29" y2="661.21"/>
      <line x1="678.57" y1="-88.79" x2="678.57" y2="661.21"/>
      <line x1="642.86" y1="-88.79" x2="642.86" y2="661.21"/>
      <line x1="607.14" y1="-88.79" x2="607.14" y2="661.21"/>
      <line x1="571.43" y1="-88.79" x2="571.43" y2="661.21"/>
      <line x1="535.71" y1="-88.79" x2="535.71" y2="661.21"/>
      <line x1="500" y1="-88.79" x2="500" y2="661.21"/>
      <line x1="464.29" y1="-88.79" x2="464.29" y2="661.21"/>
      <line x1="428.57" y1="-88.79" x2="428.57" y2="661.21"/>
      <line x1="392.86" y1="-88.79" x2="392.86" y2="661.21"/>
      <line x1="357.14" y1="-88.79" x2="357.14" y2="661.21"/>
      <line x1="321.43" y1="-88.79" x2="321.43" y2="661.21"/>
      <line x1="285.71" y1="-88.79" x2="285.71" y2="661.21"/>
      <line x1="250" y1="-88.79" x2="250" y2="661.21"/>
      <line x1="214.29" y1="-88.79" x2="214.29" y2="661.21"/>
      <line x1="178.57" y1="-88.79" x2="178.57" y2="661.21"/>
      <line x1="142.86" y1="-88.79" x2="142.86" y2="661.21"/>
      <line x1="107.14" y1="-88.79" x2="107.14" y2="661.21"/>
      <line x1="71.43" y1="-88.79" x2="71.43" y2="661.21"/>
      <line x1="35.71" y1="-88.79" x2="35.71" y2="661.21"/>
    </g>
    <circle cx="107.14" r="53.57" fill="#8f96fc"/>
    <circle cx="371.69" cy="232.64" r="53.57" fill="#f189e5"/>
    <circle cx="750" cy="179.07" r="53.57" fill="#8f96fc"/>
    <rect x="582.44" y="-52.59" width="105.19" height="105.19" fill="#f189e5"/>
    <rect x="326.19" y="447.41" width="105.19" height="105.19" fill="#ffe553"/>
    <rect x="-52.59" y="100.77" width="105.19" height="105.19" fill="#f189e5"/>
    <polygon points="571.43 236.06 507.82 346.23 635.03 346.23 571.43 236.06" fill="#2fd4cb"/>
    <polygon points="375 -72.44 311.39 37.73 438.61 37.73 375 -72.44" fill="#ffe553"/>
    <polygon points="178.57 231.13 114.97 341.3 242.18 341.3 178.57 231.13" fill="#8f96fc"/>
    <polygon points="706.46 427.56 642.86 537.73 770.07 537.73 706.46 427.56" fill="#ffe553"/>
    <circle cx="107.14" cy="500" r="53.57" fill="#2fd4cb"/>
    <g fill="#4452c8">
      <circle cx="636.34" cy="132.01" r="3.72"/>
      <circle cx="636.34" cy="145.63" r="3.72"/>
      <circle cx="636.34" cy="160.93" r="3.72"/>
      <circle cx="636.34" cy="174.56" r="3.72"/>
      <circle cx="636.34" cy="188.18" r="3.72"/>
      <circle cx="636.34" cy="201.81" r="3.72"/>
      <circle cx="636.34" cy="217.11" r="3.72"/>
      <circle cx="636.34" cy="230.73" r="3.72"/>
      <circle cx="648.44" cy="132.26" r="3.72"/>
      <circle cx="648.44" cy="145.88" r="3.72"/>
      <circle cx="648.44" cy="161.19" r="3.72"/>
      <circle cx="648.44" cy="174.81" r="3.72"/>
      <circle cx="648.44" cy="188.44" r="3.72"/>
      <circle cx="648.44" cy="202.06" r="3.72"/>
      <circle cx="648.44" cy="217.37" r="3.72"/>
      <circle cx="648.44" cy="230.99" r="3.72"/>
      <circle cx="660.33" cy="132.54" r="3.72"/>
      <circle cx="660.33" cy="146.16" r="3.72"/>
      <circle cx="660.33" cy="161.47" r="3.72"/>
      <circle cx="660.33" cy="175.09" r="3.72"/>
      <circle cx="660.33" cy="188.71" r="3.72"/>
      <circle cx="660.33" cy="202.34" r="3.72"/>
      <circle cx="660.33" cy="217.64" r="3.72"/>
      <circle cx="660.33" cy="231.27" r="3.72"/>
      <circle cx="672.43" cy="132.79" r="3.72"/>
      <circle cx="672.43" cy="146.42" r="3.72"/>
      <circle cx="672.43" cy="161.72" r="3.72"/>
      <circle cx="672.43" cy="175.34" r="3.72"/>
      <circle cx="672.43" cy="188.97" r="3.72"/>
      <circle cx="672.43" cy="202.59" r="3.72"/>
      <circle cx="672.43" cy="217.9" r="3.72"/>
      <circle cx="672.43" cy="231.52" r="3.72"/>
      <circle cx="684.71" cy="132.79" r="3.72"/>
      <circle cx="684.71" cy="146.42" r="3.72"/>
      <circle cx="684.71" cy="161.72" r="3.72"/>
      <circle cx="684.71" cy="175.34" r="3.72"/>
      <circle cx="684.71" cy="188.97" r="3.72"/>
      <circle cx="684.71" cy="202.59" r="3.72"/>
      <circle cx="684.71" cy="217.9" r="3.72"/>
      <circle cx="684.71" cy="231.52" r="3.72"/>
      <circle cx="696.81" cy="133.05" r="3.72"/>
      <circle cx="696.81" cy="146.67" r="3.72"/>
      <circle cx="696.81" cy="161.98" r="3.72"/>
      <circle cx="696.81" cy="175.6" r="3.72"/>
      <circle cx="696.81" cy="189.22" r="3.72"/>
      <circle cx="696.81" cy="202.85" r="3.72"/>
      <circle cx="696.81" cy="218.15" r="3.72"/>
      <circle cx="696.81" cy="231.78" r="3.72"/>
      <circle cx="708.7" cy="133.32" r="3.72"/>
      <circle cx="708.7" cy="146.95" r="3.72"/>
      <circle cx="708.7" cy="162.25" r="3.72"/>
      <circle cx="708.7" cy="175.88" r="3.72"/>
      <circle cx="708.7" cy="189.5" r="3.72"/>
      <circle cx="708.7" cy="203.12" r="3.72"/>
      <circle cx="708.7" cy="218.43" r="3.72"/>
      <circle cx="708.7" cy="232.05" r="3.72"/>
      <circle cx="720.8" cy="133.58" r="3.72"/>
      <circle cx="720.8" cy="147.2" r="3.72"/>
      <circle cx="720.8" cy="162.51" r="3.72"/>
      <circle cx="720.8" cy="176.13" r="3.72"/>
      <circle cx="720.8" cy="189.76" r="3.72"/>
      <circle cx="720.8" cy="203.38" r="3.72"/>
      <circle cx="720.8" cy="218.68" r="3.72"/>
      <circle cx="720.8" cy="232.31" r="3.72"/>
    </g>
    <g fill="#4452c8">
      <circle cx="106.49" cy="16.82" r="3.72"/>
      <circle cx="106.49" cy="30.44" r="3.72"/>
      <circle cx="106.49" cy="45.75" r="3.72"/>
      <circle cx="106.49" cy="59.37" r="3.72"/>
      <circle cx="106.49" cy="72.99" r="3.72"/>
      <circle cx="106.49" cy="86.62" r="3.72"/>
      <circle cx="106.49" cy="101.92" r="3.72"/>
      <circle cx="106.49" cy="115.55" r="3.72"/>
      <circle cx="118.59" cy="17.07" r="3.72"/>
      <circle cx="118.59" cy="30.7" r="3.72"/>
      <circle cx="118.59" cy="46" r="3.72"/>
      <circle cx="118.59" cy="59.63" r="3.72"/>
      <circle cx="118.59" cy="73.25" r="3.72"/>
      <circle cx="118.59" cy="86.87" r="3.72"/>
      <circle cx="118.59" cy="102.18" r="3.72"/>
      <circle cx="118.59" cy="115.8" r="3.72"/>
      <circle cx="130.48" cy="17.35" r="3.72"/>
      <circle cx="130.48" cy="30.97" r="3.72"/>
      <circle cx="130.48" cy="46.28" r="3.72"/>
      <circle cx="130.48" cy="59.9" r="3.72"/>
      <circle cx="130.48" cy="73.53" r="3.72"/>
      <circle cx="130.48" cy="87.15" r="3.72"/>
      <circle cx="130.48" cy="102.45" r="3.72"/>
      <circle cx="130.48" cy="116.08" r="3.72"/>
      <circle cx="142.58" cy="17.6" r="3.72"/>
      <circle cx="142.58" cy="31.23" r="3.72"/>
      <circle cx="142.58" cy="46.53" r="3.72"/>
      <circle cx="142.58" cy="60.16" r="3.72"/>
      <circle cx="142.58" cy="73.78" r="3.72"/>
      <circle cx="142.58" cy="87.4" r="3.72"/>
      <circle cx="142.58" cy="102.71" r="3.72"/>
      <circle cx="142.58" cy="116.33" r="3.72"/>
      <circle cx="154.85" cy="17.6" r="3.72"/>
      <circle cx="154.85" cy="31.23" r="3.72"/>
      <circle cx="154.85" cy="46.53" r="3.72"/>
      <circle cx="154.85" cy="60.16" r="3.72"/>
      <circle cx="154.85" cy="73.78" r="3.72"/>
      <circle cx="154.85" cy="87.4" r="3.72"/>
      <circle cx="154.85" cy="102.71" r="3.72"/>
      <circle cx="154.85" cy="116.33" r="3.72"/>
      <circle cx="166.95" cy="17.86" r="3.72"/>
      <circle cx="166.95" cy="31.48" r="3.72"/>
      <circle cx="166.95" cy="46.79" r="3.72"/>
      <circle cx="166.95" cy="60.41" r="3.72"/>
      <circle cx="166.95" cy="74.04" r="3.72"/>
      <circle cx="166.95" cy="87.66" r="3.72"/>
      <circle cx="166.95" cy="102.97" r="3.72"/>
      <circle cx="166.95" cy="116.59" r="3.72"/>
      <circle cx="178.84" cy="18.14" r="3.72"/>
      <circle cx="178.84" cy="31.76" r="3.72"/>
      <circle cx="178.84" cy="47.06" r="3.72"/>
      <circle cx="178.84" cy="60.69" r="3.72"/>
      <circle cx="178.84" cy="74.31" r="3.72"/>
      <circle cx="178.84" cy="87.94" r="3.72"/>
      <circle cx="178.84" cy="103.24" r="3.72"/>
      <circle cx="178.84" cy="116.86" r="3.72"/>
      <circle cx="190.94" cy="18.39" r="3.72"/>
      <circle cx="190.94" cy="32.02" r="3.72"/>
      <circle cx="190.94" cy="47.32" r="3.72"/>
      <circle cx="190.94" cy="60.94" r="3.72"/>
      <circle cx="190.94" cy="74.57" r="3.72"/>
      <circle cx="190.94" cy="88.19" r="3.72"/>
      <circle cx="190.94" cy="103.5" r="3.72"/>
      <circle cx="190.94" cy="117.12" r="3.72"/>
    </g>
    <g fill="#4452c8">
      <circle cx="267.41" cy="375.05" r="3.72"/>
      <circle cx="267.41" cy="388.68" r="3.72"/>
      <circle cx="267.41" cy="403.98" r="3.72"/>
      <circle cx="267.41" cy="417.61" r="3.72"/>
      <circle cx="267.41" cy="431.23" r="3.72"/>
      <circle cx="267.41" cy="444.85" r="3.72"/>
      <circle cx="267.41" cy="460.16" r="3.72"/>
      <circle cx="267.41" cy="473.78" r="3.72"/>
      <circle cx="279.51" cy="375.31" r="3.72"/>
      <circle cx="279.51" cy="388.93" r="3.72"/>
      <circle cx="279.51" cy="404.24" r="3.72"/>
      <circle cx="279.51" cy="417.86" r="3.72"/>
      <circle cx="279.51" cy="431.49" r="3.72"/>
      <circle cx="279.51" cy="445.11" r="3.72"/>
      <circle cx="279.51" cy="460.42" r="3.72"/>
      <circle cx="279.51" cy="474.04" r="3.72"/>
      <circle cx="291.4" cy="375.59" r="3.72"/>
      <circle cx="291.4" cy="389.21" r="3.72"/>
      <circle cx="291.4" cy="404.52" r="3.72"/>
      <circle cx="291.4" cy="418.14" r="3.72"/>
      <circle cx="291.4" cy="431.76" r="3.72"/>
      <circle cx="291.4" cy="445.39" r="3.72"/>
      <circle cx="291.4" cy="460.69" r="3.72"/>
      <circle cx="291.4" cy="474.32" r="3.72"/>
      <circle cx="303.5" cy="375.84" r="3.72"/>
      <circle cx="303.5" cy="389.47" r="3.72"/>
      <circle cx="303.5" cy="404.77" r="3.72"/>
      <circle cx="303.5" cy="418.39" r="3.72"/>
      <circle cx="303.5" cy="432.02" r="3.72"/>
      <circle cx="303.5" cy="445.64" r="3.72"/>
      <circle cx="303.5" cy="460.95" r="3.72"/>
      <circle cx="303.5" cy="474.57" r="3.72"/>
      <circle cx="315.77" cy="375.84" r="3.72"/>
      <circle cx="315.77" cy="389.47" r="3.72"/>
      <circle cx="315.77" cy="404.77" r="3.72"/>
      <circle cx="315.77" cy="418.39" r="3.72"/>
      <circle cx="315.77" cy="432.02" r="3.72"/>
      <circle cx="315.77" cy="445.64" r="3.72"/>
      <circle cx="315.77" cy="460.95" r="3.72"/>
      <circle cx="315.77" cy="474.57" r="3.72"/>
      <circle cx="327.87" cy="376.1" r="3.72"/>
      <circle cx="327.87" cy="389.72" r="3.72"/>
      <circle cx="327.87" cy="405.03" r="3.72"/>
      <circle cx="327.87" cy="418.65" r="3.72"/>
      <circle cx="327.87" cy="432.27" r="3.72"/>
      <circle cx="327.87" cy="445.9" r="3.72"/>
      <circle cx="327.87" cy="461.2" r="3.72"/>
      <circle cx="327.87" cy="474.83" r="3.72"/>
      <circle cx="339.76" cy="376.37" r="3.72"/>
      <circle cx="339.76" cy="390" r="3.72"/>
      <circle cx="339.76" cy="405.3" r="3.72"/>
      <circle cx="339.76" cy="418.93" r="3.72"/>
      <circle cx="339.76" cy="432.55" r="3.72"/>
      <circle cx="339.76" cy="446.17" r="3.72"/>
      <circle cx="339.76" cy="461.48" r="3.72"/>
      <circle cx="339.76" cy="475.1" r="3.72"/>
      <circle cx="351.86" cy="376.63" r="3.72"/>
      <circle cx="351.86" cy="390.25" r="3.72"/>
      <circle cx="351.86" cy="405.56" r="3.72"/>
      <circle cx="351.86" cy="419.18" r="3.72"/>
      <circle cx="351.86" cy="432.8" r="3.72"/>
      <circle cx="351.86" cy="446.43" r="3.72"/>
      <circle cx="351.86" cy="461.73" r="3.72"/>
      <circle cx="351.86" cy="475.36" r="3.72"/>
    </g>
    <g fill="#4452c8">
      <circle cx="727.84" cy="321.72" r="3.72"/>
      <circle cx="727.84" cy="335.34" r="3.72"/>
      <circle cx="727.84" cy="350.65" r="3.72"/>
      <circle cx="727.84" cy="364.27" r="3.72"/>
      <circle cx="727.84" cy="377.89" r="3.72"/>
      <circle cx="727.84" cy="391.52" r="3.72"/>
      <circle cx="727.84" cy="406.82" r="3.72"/>
      <circle cx="727.84" cy="420.45" r="3.72"/>
      <circle cx="739.94" cy="321.97" r="3.72"/>
      <circle cx="739.94" cy="335.6" r="3.72"/>
      <circle cx="739.94" cy="350.9" r="3.72"/>
      <circle cx="739.94" cy="364.52" r="3.72"/>
      <circle cx="739.94" cy="378.15" r="3.72"/>
      <circle cx="739.94" cy="391.77" r="3.72"/>
      <circle cx="739.94" cy="407.08" r="3.72"/>
      <circle cx="739.94" cy="420.7" r="3.72"/>
      <circle cx="751.83" cy="322.25" r="3.72"/>
      <circle cx="751.83" cy="335.87" r="3.72"/>
      <circle cx="751.83" cy="351.18" r="3.72"/>
      <circle cx="751.83" cy="364.8" r="3.72"/>
      <circle cx="751.83" cy="378.42" r="3.72"/>
      <circle cx="751.83" cy="392.05" r="3.72"/>
      <circle cx="751.83" cy="407.35" r="3.72"/>
      <circle cx="751.83" cy="420.98" r="3.72"/>
    </g>
    <path d="M339.76 314.22a6 6 0 01-6-5.43l-2.43-24.17a6.05 6.05 0 015.41-6.62l18-1.81-1.83-18.19a6 6 0 015.4-6.61l18.49-1.86-1.8-18.29a6 6 0 015.4-6.62l18-1.81-1.83-18.2a6 6 0 015.4-6.61l24.03-2.42a6 6 0 011.2 12l-18 1.81 1.79 17.82a6 6 0 01-5.33 7l-18 1.82 1.83 18.16a6 6 0 01-3.86 6.25l-.44.17a5.92 5.92 0 01-1.55.36l-18 1.81 1.79 17.82a6 6 0 01-.17 2.71 6 6 0 01-5.26 4.29l-18 1.82 1.83 18.16a6 6 0 01-5.4 6.61c-.26.02-.43.03-.67.03z" fill="#4452c8"/>
    <path d="M348.5 310.76a6 6 0 01-6-5.43l-2.43-24.18a6 6 0 015.41-6.61l18-1.81-1.83-18.2a6 6 0 015.4-6.61l18.49-1.86-1.84-18.29a6 6 0 015.4-6.61l18-1.81-1.83-18.2a6 6 0 015.4-6.61l24.05-2.42a6 6 0 011.2 12l-18 1.81 1.79 17.81a6 6 0 01-5.33 7l-18 1.81 1.82 18.17a6 6 0 01-3.86 6.25l-.44.17a6.27 6.27 0 01-1.54.36l-18 1.81 1.79 17.81a6 6 0 01-5.33 7l-18 1.81 1.83 18.17a6 6 0 01-5.4 6.61c-.34.04-.54.05-.75.05z" fill="#ffe553"/>
    <path d="M307.47 278.9a6 6 0 01-6-5.43L299 249.29a6 6 0 015.41-6.61l18-1.81-1.83-18.2a6 6 0 015.4-6.61l18.49-1.86-1.84-18.29a6 6 0 015.4-6.61l18-1.81-1.83-18.2a6 6 0 015.4-6.61l24.05-2.42a6 6 0 111.2 12l-18 1.81 1.79 17.81a5.94 5.94 0 01-.17 2.71 6 6 0 01-5.16 4.29l-18 1.81 1.82 18.17a6 6 0 01-3.85 6.24l-.44.17a6.37 6.37 0 01-1.55.37l-18 1.81 1.71 17.83a5.94 5.94 0 01-.17 2.71 6.05 6.05 0 01-5.16 4.29l-18 1.81 1.83 18.17a6 6 0 01-5.4 6.61c-.22.02-.42.03-.63.03z" fill="#4452c8"/>
    <path d="M316.21 275.44a6.05 6.05 0 01-6-5.44l-2.43-24.17a6 6 0 015.41-6.61l18-1.81-1.84-18.2a6.06 6.06 0 015.41-6.62l18.49-1.86-1.84-18.28a6 6 0 015.4-6.62l18-1.81-1.81-18.19a6.05 6.05 0 015.4-6.62l24.05-2.41a6 6 0 111.2 12l-18 1.82 1.79 17.81a6 6 0 01-.17 2.71 6 6 0 01-5.16 4.28l-18 1.82 1.82 18.16a6 6 0 01-3.86 6.25l-.44.17a5.85 5.85 0 01-1.54.36L342 224l1.79 17.81a6 6 0 01-.17 2.71 6 6 0 01-5.16 4.28l-18 1.82 1.83 18.16a6 6 0 01-5.4 6.61 4.3 4.3 0 01-.68.05z" fill="#ffe553"/>
    <path d="M-11.84 411.93a6 6 0 01-6-5.44l-2.43-24.17a6 6 0 015.4-6.62l18-1.81L1.3 355.7a6.05 6.05 0 015.4-6.62l18.49-1.86-1.84-18.28a6.05 6.05 0 015.4-6.62l18-1.81-1.83-18.2a6.05 6.05 0 015.41-6.61l24-2.42a6 6 0 011.21 12l-18 1.81 1.79 17.82a6.11 6.11 0 01-.18 2.71 6 6 0 01-5.15 4.3l-18 1.82 1.8 18.16a6 6 0 01-3.86 6.25l-.44.17a5.92 5.92 0 01-1.55.36l-18 1.81 1.79 17.82a6 6 0 01-.17 2.71 6 6 0 01-5.16 4.28l-18 1.82 1.82 18.16a6 6 0 01-5.4 6.61c-.27.02-.47.04-.67.04z" fill="#4452c8"/>
    <path d="M-3.1 408.46a6 6 0 01-6-5.43l-2.43-24.18a6 6 0 015.4-6.61l18-1.81-1.87-18.2a6 6 0 015.4-6.61l18.49-1.86-1.84-18.29a6 6 0 015.4-6.61l18-1.81-1.83-18.2a6 6 0 015.41-6.61l24-2.42a6 6 0 011.21 12l-18 1.81 1.79 17.81a6.14 6.14 0 01-.18 2.72 6 6 0 01-5.16 4.28l-18 1.81 1.83 18.17a6 6 0 01-3.87 6.25l-.44.17a6.17 6.17 0 01-1.54.36l-18 1.81 1.79 17.81a6 6 0 01-5.33 7l-18 1.81 1.82 18.17a6 6 0 01-5.4 6.61z" fill="#f189e5"/>
    <path d="M-44.13 376.6a6 6 0 01-6-5.43L-52.56 347a6 6 0 015.4-6.61l18-1.81-1.84-18.21a6 6 0 015.4-6.61l18.5-1.86-1.84-18.29a6 6 0 015.4-6.61l18-1.81L12.63 267a6 6 0 015.37-6.62l24-2.42a6 6 0 011.21 12l-18 1.81L27 289.58a6.07 6.07 0 01-5.34 7l-18 1.81 1.83 18.17a6 6 0 01-3.86 6.24l-.44.17a6.37 6.37 0 01-1.55.37l-18 1.81 1.78 17.85a5.94 5.94 0 01-.17 2.71 6 6 0 01-5.16 4.29l-18 1.81 1.79 18.19a6 6 0 01-5.4 6.61z" fill="#4452c8"/>
    <path d="M-35.39 373.14a6 6 0 01-6-5.44l-2.43-24.17a6 6 0 015.4-6.61l18-1.81-1.83-18.2a6.06 6.06 0 011.33-4.43 6.06 6.06 0 014.07-2.19l18.49-1.85-1.84-18.29a6 6 0 015.4-6.61l18-1.82-1.83-18.19a6.05 6.05 0 015.41-6.62l24-2.41a6 6 0 111.21 12l-18 1.82 1.79 17.81a6.1 6.1 0 01-.18 2.71 6 6 0 01-5.16 4.28l-18 1.82 1.83 18.16a6 6 0 01-3.87 6.25l-.44.17a5.76 5.76 0 01-1.54.36l-18 1.82 1.79 17.81a5.94 5.94 0 01-.21 2.72 6 6 0 01-5.16 4.28l-18 1.82 1.82 18.16a6 6 0 01-5.4 6.62z" fill="#f189e5"/>
    <path d="M517.93 557.81a6 6 0 01-6-5.44l-2.43-24.17a6 6 0 015.4-6.62l18-1.81-1.83-18.19a6.05 6.05 0 015.4-6.62L555 493.1l-1.84-18.28a6.05 6.05 0 015.4-6.62l18-1.81-1.83-18.19a6.05 6.05 0 015.41-6.62l24-2.42a6 6 0 011.21 12l-18 1.81 1.79 17.82a6.1 6.1 0 01-.18 2.71 6 6 0 01-5.16 4.28l-18 1.82 1.83 18.16a6 6 0 01-3.86 6.25l-.44.17a5.92 5.92 0 01-1.55.36l-18 1.82 1.79 17.81a6 6 0 01-.17 2.71 6 6 0 01-5.16 4.28l-18 1.82 1.82 18.16a6 6 0 01-5.4 6.61 4.26 4.26 0 01-.73.06z" fill="#4452c8"/>
    <path d="M526.67 554.34a6 6 0 01-6-5.43l-2.43-24.18a6 6 0 015.4-6.61l18-1.81-1.83-18.2a6 6 0 015.4-6.61l18.49-1.86-1.84-18.29a6 6 0 015.4-6.61l18-1.81-1.83-18.2a6 6 0 015.41-6.61l24-2.42a6 6 0 011.21 12l-18 1.81 1.79 17.81a6.14 6.14 0 01-.18 2.72 6 6 0 01-5.16 4.28l-18 1.81 1.83 18.17a6 6 0 01-3.87 6.25l-.44.17a6.17 6.17 0 01-1.54.36l-18 1.81 1.79 17.81a6 6 0 01-5.33 7l-18 1.81 1.82 18.17a6 6 0 01-5.4 6.61z" fill="#2fd4cb"/>
    <path d="M485.64 522.48a6 6 0 01-6-5.43l-2.43-24.18a6 6 0 015.4-6.61l18-1.81-1.83-18.2a6 6 0 015.4-6.61l18.49-1.86-1.84-18.29a6 6 0 015.4-6.61l18-1.81-1.83-18.2a6 6 0 015.41-6.61l24-2.42a6 6 0 011.21 12l-18 1.81 1.79 17.81a6.07 6.07 0 01-5.34 7l-18 1.81 1.83 18.17a6 6 0 01-3.86 6.24l-.44.17a6.37 6.37 0 01-1.55.37l-18 1.81 1.79 17.81a5.94 5.94 0 01-.17 2.71 6 6 0 01-5.16 4.29l-18 1.81 1.82 18.17a6 6 0 01-5.4 6.61z" fill="#4452c8"/>
    <path d="M494.38 519a6 6 0 01-6-5.44L486 489.41a6 6 0 015.4-6.61l18-1.81-1.83-18.2a6 6 0 015.4-6.62l18.49-1.85-1.89-18.32a6 6 0 015.4-6.61l18-1.81-1.83-18.2a6.05 6.05 0 015.41-6.62l24-2.41a6 6 0 111.21 12l-18 1.82 1.8 17.83a6.07 6.07 0 01-5.34 7l-18 1.81L544 459a6 6 0 01-3.87 6.25l-.44.17a5.76 5.76 0 01-1.54.36l-18 1.82 1.79 17.81a5.94 5.94 0 01-.17 2.71 6 6 0 01-5.16 4.28l-18 1.82 1.82 18.16A6 6 0 01495 519z" fill="#2fd4cb"/>
    <path d="M554.75 140.32a6 6 0 01-6-5.43l-2.43-24.17a6 6 0 015.4-6.62l18-1.81-1.83-18.2a6.05 6.05 0 015.41-6.61l18.48-1.86-1.84-18.28a6.05 6.05 0 015.41-6.62l18-1.81-1.83-18.2a6 6 0 015.4-6.61l24-2.42a6 6 0 111.21 12l-18 1.81 1.79 17.81a6 6 0 01-5.33 7l-18 1.81 1.83 18.17a6.06 6.06 0 01-3.86 6.25l-.44.17a6.17 6.17 0 01-1.54.36l-18 1.81 1.8 17.82a6.11 6.11 0 01-.18 2.71 6 6 0 01-5.2 4.3l-18 1.82 1.83 18.16a6 6 0 01-5.41 6.61c-.26.02-.42.03-.67.03z" fill="#4452c8"/>
    <path d="M563.49 136.86a6 6 0 01-6-5.43l-2.43-24.18a6 6 0 015.4-6.61l18-1.81-1.83-18.2A6 6 0 01582 74l18.48-1.86-1.84-18.29a6 6 0 015.41-6.61l18-1.81-1.83-18.2a6 6 0 015.4-6.61l24-2.42a6 6 0 011.21 12l-18 1.81 1.79 17.81a6 6 0 01-.17 2.72 6.06 6.06 0 01-5.16 4.28l-18 1.81 1.83 18.17a6 6 0 01-3.86 6.25l-.45.17a6.68 6.68 0 01-1.53.36l-18 1.81 1.72 17.85a6 6 0 01-5.33 7l-18 1.81 1.83 18.17a6 6 0 01-5.41 6.61c-.19.02-.4.03-.6.03z" fill="#8f96fc"/>
    <path d="M522.46 105a6 6 0 01-6-5.43L514 75.39a6 6 0 015.4-6.61l18-1.81-1.83-18.2a6 6 0 015.43-6.61l18.48-1.86-1.83-18.3a6 6 0 015.41-6.61l18-1.81-1.83-18.2a6 6 0 015.4-6.61l24-2.42a6 6 0 016.61 5.4 6 6 0 01-5.4 6.62l-18 1.81 1.8 17.82a5.94 5.94 0 01-.17 2.71 6.05 6.05 0 01-5.16 4.29l-18 1.81L572.1 45a6 6 0 01-3.86 6.25l-.44.17a6.19 6.19 0 01-1.54.37l-18 1.81L550 71.38a6.07 6.07 0 01-5.34 7l-18 1.81 1.83 18.17a6 6 0 01-5.41 6.61c-.21.03-.42.03-.62.03z" fill="#4452c8"/>
    <path d="M531.2 101.54a6 6 0 01-6-5.44l-2.43-24.17a6 6 0 015.4-6.61l18-1.81-1.83-18.2a6 6 0 015.41-6.62l18.48-1.86-1.84-18.28a6.05 6.05 0 015.41-6.62l18-1.81L588-8.07a6 6 0 015.4-6.62l24-2.41a6 6 0 016.6 5.4 6 6 0 01-5.4 6.61l-18 1.82 1.79 17.81a6 6 0 01-.17 2.71 6 6 0 01-5.16 4.28l-18 1.82 1.83 18.16a6 6 0 01-3.89 6.25l-.45.17a5.78 5.78 0 01-1.53.36l-18 1.82 1.79 17.81a6 6 0 01-.17 2.71 6 6 0 01-5.16 4.28l-18 1.82 1.83 18.16a6 6 0 01-5.41 6.61 4.17 4.17 0 01-.7.04z" fill="#8f96fc"/>
    <rect x="-39.64" y="95.57" width="105.19" height="105.19" fill="none" stroke="#8f96fc" stroke-miterlimit="10"/>
    <polygon points="584.39 230.86 520.78 341.03 647.99 341.03 584.39 230.86" fill="none" stroke="#8f96fc" stroke-miterlimit="10"/>
    <polygon points="191.53 225.93 127.92 336.1 255.13 336.1 191.53 225.93" fill="none" stroke="#8f96fc" stroke-miterlimit="10"/>
    <polygon points="719.42 422.36 655.82 532.53 783.02 532.53 719.42 422.36" fill="none" stroke="#8f96fc" stroke-miterlimit="10"/>
    <circle cx="120.1" cy="494.8" r="53.57" fill="none" stroke="#8f96fc" stroke-miterlimit="10"/>
    <path d="M271.13 163.32a27.07 27.07 0 1127.06-27.07 27.1 27.1 0 01-27.06 27.07zm0-46.13a19.07 19.07 0 1019.06 19.06 19.08 19.08 0 00-19.06-19.06z" fill="#8f96fc"/>
    <path d="M451.74 420.25a27.07 27.07 0 1127.07-27.07 27.09 27.09 0 01-27.07 27.07zm0-46.13a19.07 19.07 0 1019.07 19.06 19.08 19.08 0 00-19.07-19.06z" fill="#ffe553"/>
    <circle cx="504.53" cy="163.13" r="12.21" fill="#4452c8"/>
    <circle cx="99.74" cy="391.85" r="9.99" fill="#4452c8"/>
    <circle cx="101.3" cy="168.31" r="11.54" fill="#4452c8"/>
    <circle cx="676.1" cy="382.87" r="7.38" fill="#4452c8"/>
  </g>
</svg>
