<?xml version="1.0" encoding="UTF-8" standalone="no"?><!DOCTYPE svg PUBLIC "-//W3C//DTD SVG 1.1//EN" "http://www.w3.org/Graphics/SVG/1.1/DTD/svg11.dtd"><svg width="100%" height="100%" viewBox="0 0 1024 1024" version="1.1" xmlns="http://www.w3.org/2000/svg" xmlns:xlink="http://www.w3.org/1999/xlink" xml:space="preserve" xmlns:serif="http://www.serif.com/" style="fill-rule:evenodd;clip-rule:evenodd;stroke-linejoin:round;stroke-miterlimit:1.41421;"><rect id="Artboard1" x="0" y="0" width="1024" height="1024" style="fill:none;"/><clipPath id="_clip1"><rect id="Artboard11" serif:id="Artboard1" x="0" y="0" width="1024" height="1024"/></clipPath><g clip-path="url(#_clip1)"><path d="M1024,512c0,-282.77 -229.23,-512 -512,-512c0,0 0,0 0,0c-282.77,0 -512,229.23 -512,512c0,0 0,0 0,0c0,282.77 229.23,512 512,512c0,0 0,0 0,0c282.77,0 512,-229.23 512,-512c0,0 0,0 0,0Z" style="fill:url(#_Linear2);"/><path d="M767.375,206.06c-11.981,-11.906 -28.989,-14.115 -38.099,-5.005l-474.633,474.632c-9.132,9.133 -61.975,124.394 -50.08,136.289c11.895,11.895 127.156,-40.948 136.289,-50.08l412.364,-412.365l-36.089,-90.955l63.522,63.522l34.835,-34.835c9.11,-9.11 6.901,-26.119 -5.005,-38.099l-43.104,-43.104Z" style="fill:#fff;"/></g><defs><linearGradient id="_Linear2" x1="0" y1="0" x2="1" y2="0" gradientUnits="userSpaceOnUse" gradientTransform="matrix(1024,0,0,1024,0,512)"><stop offset="0" style="stop-color:#fbab7e;stop-opacity:1"/><stop offset="1" style="stop-color:#f7ce68;stop-opacity:1"/></linearGradient></defs></svg>